<svg viewBox="0 0 36 36" fill="none" xmlns="http://www.w3.org/2000/svg">
    <g clip-path="url(#clip0_9775_183766)">
        <g clip-path="url(#clip1_9775_183766)">
            <path fill-rule="evenodd" clip-rule="evenodd" d="M18 0C27.9418 0 36 8.05817 36 18C36 27.9418 27.9418 36 18 36C8.05817 36 0 27.9418 0 18C0 8.05817 8.05817 0 18 0Z" fill="#07222F"/>
            <path d="M19.7769 21.7154C19.7769 20.8232 20.5002 20.1 21.3923 20.1H22.0385C22.9306 20.1 23.6538 20.8232 23.6538 21.7154V22.3615C23.6538 23.2537 22.9306 23.9769 22.0385 23.9769H21.3923C20.5002 23.9769 19.7769 23.2537 19.7769 22.3615V21.7154Z" fill="#1EEFA4"/>
            <path d="M21.3923 14.2846C20.5002 14.2846 19.7769 15.0078 19.7769 15.9V16.5462C19.7769 17.4383 20.5002 18.1615 21.3923 18.1615H22.0385C22.9306 18.1615 23.6538 17.4383 23.6538 16.5462V15.9C23.6538 15.0078 22.9306 14.2846 22.0385 14.2846H21.3923Z" fill="#1EEFA4"/>
            <path fill-rule="evenodd" clip-rule="evenodd" d="M13.9615 7.5C10.3929 7.5 7.5 10.3929 7.5 13.9615V22.0385C7.5 25.6071 10.3929 28.5 13.9615 28.5H22.0385C25.6071 28.5 28.5 25.6071 28.5 22.0385V13.9615C28.5 10.3929 25.6071 7.5 22.0385 7.5H13.9615ZM22.0385 10.0846H13.9615C11.8204 10.0846 10.0846 11.8204 10.0846 13.9615V22.0385C10.0846 24.1796 11.8204 25.9154 13.9615 25.9154H22.0385C24.1796 25.9154 25.9154 24.1796 25.9154 22.0385V13.9615C25.9154 11.8204 24.1796 10.0846 22.0385 10.0846Z" fill="#1EEFA4"/>
        </g>
    </g>
    <defs>
        <clipPath id="clip0_9775_183766">
            <rect width="36" height="36" rx="8" fill="white"/>
        </clipPath>
        <clipPath id="clip1_9775_183766">
            <rect width="36" height="36" fill="white"/>
        </clipPath>
    </defs>
</svg>
