<svg width="259" height="40" viewBox="0 0 259 40" fill="none" xmlns="http://www.w3.org/2000/svg">
<path d="M23.3846 27.0769C23.3846 25.3776 24.7622 24 26.4615 24H27.6923C29.3916 24 30.7692 25.3776 30.7692 27.0769V28.3077C30.7692 30.007 29.3916 31.3846 27.6923 31.3846H26.4615C24.7622 31.3846 23.3846 30.007 23.3846 28.3077V27.0769Z" fill="#1EEFA4"/>
<path d="M26.4615 12.9231C24.7622 12.9231 23.3846 14.3007 23.3846 16V17.2308C23.3846 18.9301 24.7622 20.3077 26.4615 20.3077H27.6923C29.3916 20.3077 30.7692 18.9301 30.7692 17.2308V16C30.7692 14.3007 29.3916 12.9231 27.6923 12.9231H26.4615Z" fill="#1EEFA4"/>
<path fill-rule="evenodd" clip-rule="evenodd" d="M12.3077 0C5.51034 0 0 5.51034 0 12.3077V27.6923C0 34.4897 5.51034 40 12.3077 40H27.6923C34.4897 40 40 34.4897 40 27.6923V12.3077C40 5.51034 34.4897 0 27.6923 0H12.3077ZM27.6923 4.92308H12.3077C8.22928 4.92308 4.92308 8.22928 4.92308 12.3077V27.6923C4.92308 31.7707 8.22928 35.0769 12.3077 35.0769H27.6923C31.7707 35.0769 35.0769 31.7707 35.0769 27.6923V12.3077C35.0769 8.22928 31.7707 4.92308 27.6923 4.92308Z" fill="#1EEFA4"/>
<path d="M78.9493 30.0555C79.7875 28.7115 80.2174 27.1536 80.1867 25.5706C80.1867 24.1067 79.8626 22.8427 79.222 21.8091C78.5286 20.7201 77.5871 19.8101 76.4745 19.1535C75.0245 18.305 73.4911 17.6072 71.8985 17.071C71.7803 17.0329 71.6754 16.9949 71.5858 16.9606L71.3513 16.8768C70.3064 16.5209 69.5247 16.2334 69.0214 16.0221C68.5611 15.8425 68.1354 15.5849 67.763 15.2607C67.6 15.1184 67.4696 14.9428 67.3808 14.7457C67.292 14.5486 67.2467 14.3347 67.2482 14.1185C67.2383 13.7972 67.306 13.4783 67.4458 13.1887C67.5855 12.8991 67.793 12.6473 68.0509 12.4548C68.56 12.0626 69.2902 11.8628 70.2187 11.8628C71.3639 11.873 72.4947 12.1193 73.5401 12.5861C74.4486 12.9747 75.2947 13.4949 76.0512 14.1299L79.7024 9.68694C78.4358 8.55933 76.9881 7.65261 75.4201 7.00476C73.6685 6.31469 71.7984 5.97388 69.9156 6.00157C67.8183 6.00157 66.0546 6.37087 64.6818 7.09995C63.309 7.82902 62.3042 8.79034 61.6712 9.96867C61.0284 11.1699 60.6973 12.5129 60.7084 13.8749C60.7084 16.2696 61.471 18.1066 62.962 19.3382C64.6143 20.6615 66.517 21.6385 68.5561 22.2107C69.6046 22.5024 70.6305 22.8695 71.6259 23.3091C72.3656 23.6613 72.8595 24.0135 73.134 24.3828C73.4168 24.7689 73.5648 25.237 73.5554 25.7153C73.5633 26.0703 73.4798 26.4215 73.3129 26.7352C73.146 27.0488 72.9012 27.3144 72.6021 27.5066C71.9938 27.9254 71.1206 28.129 69.9327 28.129C67.5628 28.129 65.2691 27.1144 63.1146 25.1118L59 29.3816C60.4089 30.8537 62.093 32.0359 63.9573 32.8614C65.9007 33.7038 67.999 34.1318 70.1177 34.1178C72.1311 34.1178 73.931 33.7599 75.443 33.0518C76.8759 32.4102 78.0932 31.3699 78.9493 30.0555Z" fill="#1EEFA4"/>
<path d="M166.983 27.1985L163.971 24.7886C162.991 26.0823 161.631 27.0389 160.081 27.5254C158.531 28.0119 156.868 28.0041 155.322 27.5032C153.777 27.0022 152.426 26.0329 151.458 24.73C150.49 23.4272 149.953 21.8556 149.921 20.2337C149.889 18.6118 150.364 17.0203 151.279 15.6804C152.195 14.3405 153.507 13.3188 155.031 12.7574C156.555 12.196 158.217 12.1228 159.785 12.548C161.353 12.9731 162.75 13.8755 163.78 15.1297L168.682 11.2102C166.837 8.93999 164.33 7.29931 161.509 6.51558C158.688 5.73185 155.692 5.84392 152.938 6.83626C150.183 7.8286 147.806 9.65202 146.136 12.0537C144.466 14.4554 143.586 17.3163 143.618 20.2398C143.65 23.1632 144.592 26.0044 146.314 28.3693C148.036 30.7341 150.452 32.5055 153.227 33.4379C156.003 34.3702 159 34.4172 161.803 33.5725C164.607 32.7277 167.077 31.033 168.873 28.7233L166.983 27.1985Z" fill="#1EEFA4"/>
<path fill-rule="evenodd" clip-rule="evenodd" d="M109.683 15.0136C109.683 16.8753 109.301 18.5333 108.539 19.942C107.786 21.337 106.638 22.4793 105.238 23.2257C103.793 24.0062 102.056 24.4021 100.075 24.4021H95.3427V33.1111H88.8105V6H99.9835C101.926 6 103.65 6.39406 105.109 7.16882C106.516 7.89954 107.687 9.01288 108.487 10.3802C109.293 11.7902 109.706 13.3902 109.683 15.0136ZM101.349 18.1221C101.896 17.8316 102.354 17.3971 102.672 16.8658C102.995 16.3236 103.162 15.7033 103.156 15.0726C103.165 14.4715 102.994 13.8816 102.664 13.3784C102.336 12.8872 101.881 12.4928 101.349 12.2362C100.777 11.9618 100.149 11.8236 99.5145 11.8326H95.3427V18.5714H99.4954C100.141 18.5785 100.778 18.424 101.349 18.1221Z" fill="#1EEFA4"/>
<path d="M183.789 22.0778H193.991V16.7192H183.789V11.8326H196.832V6H177.256V33.1111H197.127V27.2785H183.789V22.0778Z" fill="#1EEFA4"/>
<path d="M216.724 6H223.256V33.1111H216.724V6Z" fill="#1EEFA4"/>
<path fill-rule="evenodd" clip-rule="evenodd" d="M255.877 26.4511C257.117 24.3623 257.771 21.9784 257.769 19.5502C257.768 17.122 257.111 14.7391 255.868 12.6519C254.605 10.5973 252.817 8.91532 250.687 7.7787C248.464 6.5875 245.976 5.97594 243.453 6.00073H233.3V33.1118H243.513C246.026 33.1364 248.504 32.5247 250.716 31.3339C252.842 30.1954 254.624 28.5095 255.877 26.4511ZM250.184 23.3806C249.566 24.4896 248.65 25.404 247.539 26.0209C246.38 26.661 245.074 26.989 243.749 26.9727H239.833V12.1494H243.73C245.058 12.1315 246.368 12.4595 247.53 13.1012C248.641 13.7203 249.56 14.6341 250.184 15.7415C250.83 16.9052 251.159 18.2181 251.137 19.5487C251.159 20.8871 250.83 22.2079 250.184 23.3806Z" fill="#1EEFA4"/>
<path fill-rule="evenodd" clip-rule="evenodd" d="M122.583 6H128.406L138.82 33.1492H132.118L130.639 28.8147V28.8014H120.286V28.8147L118.808 33.1492H112.108L122.583 6ZM125.475 13.6049L125.382 13.8809L122.24 23.0905H128.702L125.571 13.8809L125.475 13.6049Z" fill="#1EEFA4"/>
</svg>
